<svg width="154" height="15" viewBox="0 0 154 15" fill="none" xmlns="http://www.w3.org/2000/svg">
<path d="M15.9583 5.65815C15.8535 5.34177 15.5662 5.11707 15.2262 5.08715L10.6082 4.67767L8.78207 0.503887C8.64742 0.198002 8.34077 0 8.00006 0C7.65936 0 7.35271 0.198002 7.21806 0.504602L5.39197 4.67767L0.77321 5.08715C0.433846 5.11778 0.147218 5.34177 0.0418691 5.65815C-0.0634801 5.97452 0.0338122 6.32153 0.290532 6.54028L3.78121 9.52975L2.75189 13.9574C2.67657 14.283 2.80597 14.6195 3.08259 14.8148C3.23128 14.9197 3.40523 14.9731 3.58065 14.9731C3.7319 14.9731 3.88193 14.9333 4.01657 14.8546L8.00006 12.5297L11.9821 14.8546C12.2735 15.0258 12.6408 15.0102 12.9168 14.8148C13.1935 14.6189 13.3228 14.2823 13.2475 13.9574L12.2182 9.52975L15.7089 6.54087C15.9656 6.32153 16.0636 5.97512 15.9583 5.65815Z" fill="#FFCB31"/>
<path d="M55.9583 5.65815C55.8535 5.34177 55.5662 5.11707 55.2262 5.08715L50.6082 4.67767L48.7821 0.503887C48.6474 0.198002 48.3408 0 48.0001 0C47.6594 0 47.3527 0.198002 47.2181 0.504602L45.392 4.67767L40.7732 5.08715C40.4338 5.11778 40.1472 5.34177 40.0419 5.65815C39.9365 5.97452 40.0338 6.32153 40.2905 6.54028L43.7812 9.52975L42.7519 13.9574C42.6766 14.283 42.806 14.6195 43.0826 14.8148C43.2313 14.9197 43.4052 14.9731 43.5806 14.9731C43.7319 14.9731 43.8819 14.9333 44.0166 14.8546L48.0001 12.5297L51.9821 14.8546C52.2735 15.0258 52.6408 15.0102 52.9168 14.8148C53.1935 14.6189 53.3228 14.2823 53.2475 13.9574L52.2182 9.52975L55.7089 6.54087C55.9656 6.32153 56.0636 5.97512 55.9583 5.65815Z" fill="#FFCB31"/>
<path d="M35.9583 5.65815C35.8535 5.34177 35.5662 5.11707 35.2262 5.08715L30.6082 4.67767L28.7821 0.503887C28.6474 0.198002 28.3408 0 28.0001 0C27.6594 0 27.3527 0.198002 27.2181 0.504602L25.392 4.67767L20.7732 5.08715C20.4338 5.11778 20.1472 5.34177 20.0419 5.65815C19.9365 5.97452 20.0338 6.32153 20.2905 6.54028L23.7812 9.52975L22.7519 13.9574C22.6766 14.283 22.806 14.6195 23.0826 14.8148C23.2313 14.9197 23.4052 14.9731 23.5806 14.9731C23.7319 14.9731 23.8819 14.9333 24.0166 14.8546L28.0001 12.5297L31.9821 14.8546C32.2735 15.0258 32.6408 15.0102 32.9168 14.8148C33.1935 14.6189 33.3228 14.2823 33.2475 13.9574L32.2182 9.52975L35.7089 6.54087C35.9656 6.32153 36.0636 5.97512 35.9583 5.65815Z" fill="#FFCB31"/>
<path d="M75.9583 5.65815C75.8535 5.34177 75.5662 5.11707 75.2262 5.08715L70.6082 4.67767L68.7821 0.503887C68.6474 0.198002 68.3408 0 68.0001 0C67.6594 0 67.3527 0.198002 67.2181 0.504602L65.392 4.67767L60.7732 5.08715C60.4338 5.11778 60.1472 5.34177 60.0419 5.65815C59.9365 5.97452 60.0338 6.32153 60.2905 6.54028L63.7812 9.52975L62.7519 13.9574C62.6766 14.283 62.806 14.6195 63.0826 14.8148C63.2313 14.9197 63.4052 14.9731 63.5806 14.9731C63.7319 14.9731 63.8819 14.9333 64.0166 14.8546L68.0001 12.5297L71.9821 14.8546C72.2735 15.0258 72.6408 15.0102 72.9168 14.8148C73.1935 14.6189 73.3228 14.2823 73.2475 13.9574L72.2182 9.52975L75.7089 6.54087C75.9656 6.32153 76.0636 5.97512 75.9583 5.65815Z" fill="#FFCB31"/>
<path d="M95.9583 5.65815C95.8535 5.34177 95.5662 5.11707 95.2262 5.08715L90.6082 4.67767L88.7821 0.503887C88.6474 0.198002 88.3408 0 88.0001 0C87.6594 0 87.3527 0.198002 87.2181 0.504602L85.392 4.67767L80.7732 5.08715C80.4338 5.11778 80.1472 5.34177 80.0419 5.65815C79.9365 5.97452 80.0338 6.32153 80.2905 6.54028L83.7812 9.52975L82.7519 13.9574C82.6766 14.283 82.806 14.6195 83.0826 14.8148C83.2313 14.9197 83.4052 14.9731 83.5806 14.9731C83.7319 14.9731 83.8819 14.9333 84.0166 14.8546L88.0001 12.5297L91.9821 14.8546C92.2735 15.0258 92.6408 15.0102 92.9168 14.8148C93.1935 14.6189 93.3228 14.2823 93.2475 13.9574L92.2182 9.52975L95.7089 6.54087C95.9656 6.32153 96.0636 5.97512 95.9583 5.65815Z" fill="#E6EAEF"/>
<path d="M106.48 9.792V9.168L110.932 3.6H111.892L107.476 9.168L107.008 9.024H113.764V9.792H106.48ZM111.22 12V9.792L111.244 9.024V7.08H112.084V12H111.22ZM115.29 12.06C115.114 12.06 114.962 11.996 114.834 11.868C114.714 11.74 114.654 11.584 114.654 11.4C114.654 11.208 114.714 11.052 114.834 10.932C114.962 10.812 115.114 10.752 115.29 10.752C115.466 10.752 115.614 10.812 115.734 10.932C115.862 11.052 115.926 11.208 115.926 11.4C115.926 11.584 115.862 11.74 115.734 11.868C115.614 11.996 115.466 12.06 115.29 12.06ZM118.358 12V3.96L118.742 4.368H116.378V3.6H119.222V12H118.358ZM126.087 14.328C125.647 13.6 125.303 12.76 125.055 11.808C124.815 10.848 124.695 9.816 124.695 8.712C124.695 7.608 124.815 6.576 125.055 5.616C125.303 4.648 125.647 3.808 126.087 3.096H126.903C126.431 3.92 126.083 4.796 125.859 5.724C125.643 6.644 125.535 7.64 125.535 8.712C125.535 9.784 125.643 10.784 125.859 11.712C126.083 12.632 126.431 13.504 126.903 14.328H126.087ZM130.522 12.072C129.922 12.072 129.35 11.976 128.806 11.784C128.262 11.584 127.83 11.32 127.51 10.992L127.93 10.308C128.194 10.588 128.554 10.82 129.01 11.004C129.474 11.188 129.974 11.28 130.51 11.28C131.222 11.28 131.762 11.124 132.13 10.812C132.506 10.492 132.694 10.076 132.694 9.564C132.694 9.204 132.606 8.896 132.43 8.64C132.262 8.376 131.974 8.172 131.566 8.028C131.158 7.884 130.598 7.812 129.886 7.812H128.098L128.53 3.6H133.126V4.368H128.878L129.322 3.948L128.95 7.476L128.506 7.044H130.078C130.926 7.044 131.606 7.148 132.118 7.356C132.63 7.564 132.998 7.856 133.222 8.232C133.454 8.6 133.57 9.032 133.57 9.528C133.57 10 133.458 10.432 133.234 10.824C133.01 11.208 132.674 11.512 132.226 11.736C131.778 11.96 131.21 12.072 130.522 12.072ZM137.865 12.072C137.217 12.072 136.641 11.904 136.137 11.568C135.633 11.224 135.237 10.736 134.949 10.104C134.661 9.464 134.517 8.696 134.517 7.8C134.517 6.904 134.661 6.14 134.949 5.508C135.237 4.868 135.633 4.38 136.137 4.044C136.641 3.7 137.217 3.528 137.865 3.528C138.513 3.528 139.089 3.7 139.593 4.044C140.097 4.38 140.493 4.868 140.781 5.508C141.077 6.14 141.225 6.904 141.225 7.8C141.225 8.696 141.077 9.464 140.781 10.104C140.493 10.736 140.097 11.224 139.593 11.568C139.089 11.904 138.513 12.072 137.865 12.072ZM137.865 11.28C138.361 11.28 138.793 11.148 139.161 10.884C139.529 10.612 139.817 10.22 140.025 9.708C140.233 9.188 140.337 8.552 140.337 7.8C140.337 7.048 140.233 6.416 140.025 5.904C139.817 5.384 139.529 4.992 139.161 4.728C138.793 4.456 138.361 4.32 137.865 4.32C137.385 4.32 136.957 4.456 136.581 4.728C136.205 4.992 135.913 5.384 135.705 5.904C135.497 6.416 135.393 7.048 135.393 7.8C135.393 8.552 135.497 9.188 135.705 9.708C135.913 10.22 136.205 10.612 136.581 10.884C136.957 11.148 137.385 11.28 137.865 11.28ZM145.66 12.072C145.012 12.072 144.436 11.904 143.932 11.568C143.428 11.224 143.032 10.736 142.744 10.104C142.456 9.464 142.312 8.696 142.312 7.8C142.312 6.904 142.456 6.14 142.744 5.508C143.032 4.868 143.428 4.38 143.932 4.044C144.436 3.7 145.012 3.528 145.66 3.528C146.308 3.528 146.884 3.7 147.388 4.044C147.892 4.38 148.288 4.868 148.576 5.508C148.872 6.14 149.02 6.904 149.02 7.8C149.02 8.696 148.872 9.464 148.576 10.104C148.288 10.736 147.892 11.224 147.388 11.568C146.884 11.904 146.308 12.072 145.66 12.072ZM145.66 11.28C146.156 11.28 146.588 11.148 146.956 10.884C147.324 10.612 147.612 10.22 147.82 9.708C148.028 9.188 148.132 8.552 148.132 7.8C148.132 7.048 148.028 6.416 147.82 5.904C147.612 5.384 147.324 4.992 146.956 4.728C146.588 4.456 146.156 4.32 145.66 4.32C145.18 4.32 144.752 4.456 144.376 4.728C144 4.992 143.708 5.384 143.5 5.904C143.292 6.416 143.188 7.048 143.188 7.8C143.188 8.552 143.292 9.188 143.5 9.708C143.708 10.22 144 10.612 144.376 10.884C144.752 11.148 145.18 11.28 145.66 11.28ZM150.78 14.328H149.964C150.444 13.504 150.792 12.632 151.008 11.712C151.232 10.784 151.344 9.784 151.344 8.712C151.344 7.64 151.232 6.644 151.008 5.724C150.792 4.796 150.444 3.92 149.964 3.096H150.78C151.236 3.808 151.584 4.648 151.824 5.616C152.064 6.576 152.184 7.608 152.184 8.712C152.184 9.816 152.064 10.848 151.824 11.808C151.584 12.76 151.236 13.6 150.78 14.328Z" fill="#696F79"/>
</svg>
